PathFileType	4	(X/Y/Z)	C:\Users\Biomechanik\SynologyDrive\AlexP\Athlete_03\Athlete_3_25_03_31\Squat_bar_01\marker_experimental.trc
DataRate	CameraRate	NumFrames	NumMarkers	Units	OrigDataRate	OrigDataStartFrame	OrigNumFrames
200.000000	200.000000	4	55	mm	200.000000	120	482
Frame#	Time	BL			BR			GLAB			RFHD			LFHD			C7			T6			SPINMOL			SPINM2			SPINM3			T12			BELTOL			BELT2			BELT3			SACROL			SACR2			SACR3			LTHOL			LTH2			LTH3			LSHAOL			LSHA2			LSHA3			LHEE			LTOE			LM5			RTHOL			RTH2			RTH3			RSHAOL			RSHA2			RSHA3			RHEE			RTOE			RM5			STRN			XIPH			LACR			LUAOL			LUA2			LUA3			LLAOL			LLA2			LLA3			LWRR			LWRU			RACR			RUAOL			RUA2			RUA3			RLAOL			RLA2			RLA3			RWRR			RWRU			
		X1	Y1	Z1	X2	Y2	Z2	X3	Y3	Z3	X4	Y4	Z4	X5	Y5	Z5	X6	Y6	Z6	X7	Y7	Z7	X8	Y8	Z8	X9	Y9	Z9	X10	Y10	Z10	X11	Y11	Z11	X12	Y12	Z12	X13	Y13	Z13	X14	Y14	Z14	X15	Y15	Z15	X16	Y16	Z16	X17	Y17	Z17	X18	Y18	Z18	X19	Y19	Z19	X20	Y20	Z20	X21	Y21	Z21	X22	Y22	Z22	X23	Y23	Z23	X24	Y24	Z24	X25	Y25	Z25	X26	Y26	Z26	X27	Y27	Z27	X28	Y28	Z28	X29	Y29	Z29	X30	Y30	Z30	X31	Y31	Z31	X32	Y32	Z32	X33	Y33	Z33	X34	Y34	Z34	X35	Y35	Z35	X36	Y36	Z36	X37	Y37	Z37	X38	Y38	Z38	X39	Y39	Z39	X40	Y40	Z40	X41	Y41	Z41	X42	Y42	Z42	X43	Y43	Z43	X44	Y44	Z44	X45	Y45	Z45	X46	Y46	Z46	X47	Y47	Z47	X48	Y48	Z48	X49	Y49	Z49	X50	Y50	Z50	X51	Y51	Z51	X52	Y52	Z52	X53	Y53	Z53	X54	Y54	Z54	X55	Y55	Z55	

121	0.6	166.3646697998047	1190.742797851563	-2235.43701171875	245.5637054443359	1222.14404296875	-216.5375213623046	500.1956176757812	1382.901489257812	-1195.078491210938	449.9890441894531	1408.334594726562	-1132.473876953125	456.4057006835938	1405.673828125	-1267.566162109375	259.546875	1268.29541015625	-1198.50927734375	142.3886108398438	1138.781616210938	-1205.887817382812	120.1118850708008	1111.989379882812	-1225.314331054688	112.3122787475586	1105.247314453125	-1176.26171875	91.92955017089844	1053.586303710938	-1212.147216796875	69.12421417236328	991.9082641601564	-1212.310302734375	35.68099212646484	967.2642211914064	-1228.26904296875	34.80452346801758	963.9904174804689	-1177.893432617188	6.141849517822266	911.3838500976564	-1207.66748046875	-27.66885757446289	818.1590576171876	-1232.824829101562	-26.79251670837402	815.2560424804689	-1181.257202148438	-41.13937759399414	757.2225952148439	-1209.778198242188	129.4743194580078	576.7973022460939	-1481.8427734375	139.4300384521484	498.6343383789064	-1472.865966796875	166.7441101074219	531.4047241210939	-1499.359130859375	200.0219116210938	317.5301513671876	-1582.650512695312	147.6270446777344	265.1219482421876	-1553.240356445312	192.3223114013672	256.3329162597657	-1575.372192382812	110.6616744995117	69.76207733154305	-1465.684692382812	312.8980102539062	50.05912780761728	-1542.234497070312	235.8134460449219	26.35313987731944	-1621.814086914062	106.1313400268555	574.4990844726564	-939.2901000976562	166.1355285644531	577.1610717773438	-886.53173828125	149.3309936523438	538.1392211914062	-912.2794799804688	172.3896026611328	333.1950988769532	-837.4512329101562	184.5034790039062	256.1958312988282	-827.234619140625	149.4151153564453	277.9700012207032	-854.9271240234375	90.86558532714844	64.16881561279303	-966.719970703125	279.5529174804688	47.63042449951177	-867.8363037109375	189.7570343017578	38.08167648315435	-798.16650390625	380.7515563964844	1113.325317382812	-1206.387084960938	346.6255493164062	969.1866455078126	-1202.991821289062	292.7466735839844	1224.868408203125	-1368.053955078125	173.202880859375	1111.78564453125	-1457.645263671875	124.3849258422852	1070.09375	-1444.180053710938	154.0042114257812	1054.568359375	-1482.398193359375	121.1973419189453	988.3471069335939	-1549.238403320312	190.3322296142578	981.8654785156251	-1587.826538085938	163.5806121826172	1023.30078125	-1576.827270507812	221.6168060302734	1100.457397460938	-1620.335571289062	235.3902740478516	1129.74072265625	-1548.384399414062	311.2017822265625	1217.416137695312	-1041.72802734375	196.6246490478516	1109.653686523438	-952.6311035156249	171.1887359619141	1055.05517578125	-925.0657958984374	147.8180084228516	1068.822021484375	-969.6919555664061	167.0687408447266	985.2348022460938	-842.1345214843749	172.2381744384766	1064.059692382812	-829.5968017578124	207.2533721923828	1027.901123046875	-821.4623413085936	244.4022216796875	1112.743896484375	-801.7006225585936	268.4486999511719	1143.823364257812	-871.1959228515624	
122	0.605	167.0965270996094	1187.567016601563	-2235.36474609375	246.1059265136719	1219.27392578125	-216.4597778320312	501.0139770507812	1379.3857421875	-1195.018920898438	450.8335571289062	1404.831298828125	-1132.39453125	457.2286071777344	1402.193481445312	-1267.492431640625	260.2662048339844	1265.14111328125	-1198.44189453125	142.7794189453125	1135.943969726562	-1205.803955078125	120.4536895751953	1109.237426757812	-1225.224731445312	112.6676559448242	1102.531372070312	-1176.159912109375	92.07192230224609	1050.92236328125	-1212.057983398438	69.09724426269531	989.3769531250001	-1212.208129882812	35.5553092956543	964.8884887695314	-1228.101318359375	34.68817138671875	961.6156616210939	-1177.72607421875	5.847050189971924	909.0994262695314	-1207.486938476562	-28.36022567749023	815.7620239257814	-1232.656616210938	-27.4602165222168	812.8612060546876	-1181.089111328125	-41.88494873046875	754.8453369140626	-1209.609252929688	129.1544036865234	575.0917968750001	-1482.276245117188	139.6558837890625	496.9768066406251	-1473.591064453125	166.6996765136719	530.0314331054689	-1500.032836914062	200.2997131347656	317.2429504394532	-1583.376586914062	147.8579864501953	264.9977111816407	-1553.75732421875	192.4971313476562	256.0768432617189	-1575.963500976562	110.6960220336914	69.79806518554696	-1465.658325195312	312.9127197265625	50.06437683105478	-1542.256469726562	235.7966613769531	26.33125877380381	-1621.841186523438	106.1703186035156	572.6268310546876	-938.7017211914062	166.1193542480469	575.8413696289062	-885.9100952148438	149.5863189697266	536.6263427734375	-911.5462036132812	173.0333099365234	332.8235778808594	-836.7227783203125	184.9780731201172	255.7599487304688	-826.7030639648438	149.9288482666016	277.6962890625001	-854.3413696289062	90.90828704833984	64.20616912841803	-966.7222290039062	279.5641174316406	47.61601257324224	-867.834716796875	189.7554626464844	38.07888793945317	-798.1615600585938	381.1127319335938	1109.912109375	-1206.317260742188	346.6678466796875	965.8079833984376	-1202.925048828125	293.4227905273438	1221.565673828125	-1368.026489257812	173.6188812255859	1108.725952148438	-1457.620849609375	124.7014465332031	1067.150390625	-1444.159057617188	154.3122711181641	1051.540893554688	-1482.34814453125	121.3751983642578	985.3834838867189	-1549.185913085938	190.5272064208984	978.7161865234376	-1587.760131835938	163.8494567871094	1020.234802246094	-1576.766235351562	222.0631713867188	1097.254150390625	-1620.2734375	235.9394226074219	1126.47802734375	-1548.319458007812	311.8648071289062	1214.129760742188	-1041.66259765625	197.0502166748047	1106.618408203125	-952.5163574218749	171.5134735107422	1052.0751953125	-924.9205322265624	148.1516418457031	1065.879150390625	-969.5492553710936	167.2588348388672	982.2959594726562	-841.9695434570311	172.593017578125	1061.107788085938	-829.4530029296874	207.5192718505859	1024.895141601562	-821.3105468749999	244.8300170898438	1109.66845703125	-801.5645751953124	269.0245666503906	1140.63134765625	-871.0563964843749	
123	0.61	167.8305511474609	1184.37890625	-2235.2919921875	246.6463317871094	1216.395385742188	-216.3809814453124	501.8275756835938	1375.86279296875	-1194.952880859375	451.6693115234375	1401.320678710938	-1132.305908203125	458.0513305664062	1398.706787109375	-1267.415649414062	260.9857177734375	1261.977661132812	-1198.3759765625	143.1722717285156	1133.095336914062	-1205.72119140625	120.7999114990234	1106.471313476562	-1225.13671875	113.0254974365234	1099.800537109375	-1176.06005859375	92.21934509277344	1048.245971679688	-1211.97021484375	69.07753753662109	986.8330688476564	-1212.107543945312	35.43453979492188	962.5012817382814	-1227.9365234375	34.57638931274414	959.2285156250001	-1177.55908203125	5.555603504180908	906.8048095703126	-1207.3125	-29.04463005065918	813.3495483398439	-1232.490600585938	-28.11949920654297	810.4511718750001	-1180.923095703125	-42.62218475341797	752.4531250000001	-1209.442016601562	128.8414916992188	573.4049682617189	-1482.719482421875	139.8564758300781	495.3378295898439	-1474.347045898438	166.6503753662109	528.6748657226564	-1500.715942382812	200.5776672363281	316.9509582519532	-1584.103759765625	148.0880432128906	264.867401123047	-1554.280517578125	192.6736755371094	255.8164062500001	-1576.5576171875	110.7278747558594	69.8325958251954	-1465.635986328125	312.9263000488281	50.07144165039072	-1542.279907226562	235.7799987792969	26.30793571472178	-1621.869262695312	106.2097091674805	570.7470092773439	-938.11865234375	166.0974273681641	574.5112915039062	-885.2921752929688	149.8387298583984	535.1061401367188	-910.8197021484375	173.6643981933594	332.4549560546876	-836.0042114257812	185.438720703125	255.3295288085938	-826.1757202148438	150.4324798583984	277.4244384765626	-853.7640991210938	90.94983673095703	64.24466705322271	-966.724853515625	279.5749816894531	47.60282135009771	-867.832763671875	189.7537536621094	38.0759773254395	-798.1566772460938	381.4743957519531	1106.4912109375	-1206.251953125	346.7142639160156	962.4214477539064	-1202.863525390625	294.0977783203125	1218.251586914062	-1368.001708984375	174.0317077636719	1105.656005859375	-1457.5966796875	125.0138778686523	1064.1982421875	-1444.138427734375	154.6192321777344	1048.502807617188	-1482.297241210938	121.5500411987305	982.4094238281251	-1549.132202148438	190.7143859863281	975.5532226562501	-1587.693725585938	164.1156158447266	1017.157104492188	-1576.704956054688	222.5077972412109	1094.037841796875	-1620.212280273438	236.4901428222656	1123.199951171875	-1548.255493164062	312.528564453125	1210.83349609375	-1041.596923828125	197.4727630615234	1103.575317382812	-952.4060058593749	171.8338928222656	1049.087524414062	-924.7799072265624	148.4815216064453	1062.932373046875	-969.4125366210936	167.43798828125	979.3491821289062	-841.8119506835936	172.9403381347656	1058.14599609375	-829.3150024414061	207.7756652832031	1021.879333496094	-821.1634521484374	245.2534637451172	1106.578979492188	-801.4296874999999	269.5947875976562	1137.423461914062	-870.9152832031249	
124	0.615	168.566162109375	1181.178466796875	-2235.21923828125	247.1847076416016	1213.50732421875	-216.3016510009765	502.6363220214844	1372.332885742188	-1194.881469726562	452.4961242675781	1397.803344726562	-1132.209838867188	458.87353515625	1395.214111328125	-1267.3369140625	261.7048950195312	1258.804565429688	-1198.311645507812	143.5673217773438	1130.236206054688	-1205.639404296875	121.1503067016602	1103.692260742188	-1225.050048828125	113.3856887817383	1097.055053710938	-1175.962890625	92.37151336669922	1045.5576171875	-1211.883911132812	69.06466674804688	984.2769165039064	-1212.009033203125	35.31690979003906	960.1022338867189	-1227.775512695312	34.46835327148438	956.8285522460939	-1177.392822265625	5.26671028137207	904.5000000000001	-1207.145141601562	-29.72257614135742	810.9210205078126	-1232.327270507812	-28.77071189880371	808.0252075195314	-1180.759399414062	-43.35060882568359	750.0449829101564	-1209.27685546875	128.5376434326172	571.7389526367189	-1483.171997070312	140.0332336425781	493.7182617187501	-1475.133422851562	166.5980072021484	527.3355102539064	-1501.408081054688	200.8571319580078	316.654510498047	-1584.831665039062	148.3183288574219	264.7315063476564	-1554.809936523438	192.8529205322266	255.5520172119141	-1577.154296875	110.7570953369141	69.86538696289071	-1465.61767578125	312.9387817382812	50.080665588379	-1542.3046875	235.7635192871094	26.28334999084483	-1621.898193359375	106.2496337890625	568.8634643554689	-937.5377807617188	166.0723876953125	573.1735229492188	-884.6775512695312	150.0882415771484	533.58154296875	-910.09814453125	174.2836303710938	332.0891418457032	-835.2949829101562	185.8864135742188	254.904525756836	-825.6521606445312	150.9267578125	277.1543579101563	-853.19482421875	90.99012756347656	64.28437042236334	-966.727783203125	279.5855407714844	47.59077453613286	-867.8305053710938	189.751953125	38.07302856445317	-798.1517944335938	381.836669921875	1103.06103515625	-1206.191284179688	346.7640991210938	959.0259399414064	-1202.807495117188	294.7717895507812	1214.92626953125	-1367.979614257812	174.4424133300781	1102.57568359375	-1457.573364257812	125.3239669799805	1061.236572265625	-1444.11865234375	154.9277648925781	1045.453369140625	-1482.245727539062	121.7232513427734	979.4245605468751	-1549.07763671875	190.8944702148438	972.3770751953126	-1587.62744140625	164.3801727294922	1014.067749023438	-1576.643676757812	222.9515075683594	1090.808959960938	-1620.15234375	237.0424041748047	1119.90673828125	-1548.193115234375	313.1929321289062	1207.527221679688	-1041.53076171875	197.8926544189453	1100.523681640625	-952.3002319335936	172.1505737304688	1046.091674804688	-924.6444091796874	148.8082733154297	1059.98095703125	-969.2821655273436	167.6072082519531	976.3941040039062	-841.6618041992186	173.2802276611328	1055.173828125	-829.1832275390624	208.0238342285156	1018.853149414062	-821.0212402343749	245.6729736328125	1103.475463867188	-801.2968139648436	270.1598815917969	1134.200439453125	-870.7740478515624	
